<svg width="1920" height="960" viewBox="0 0 1920 960" fill="none" xmlns="http://www.w3.org/2000/svg">
<g clip-path="url(#clip0_40_17)">
<rect width="1920" height="960" rx="26.6667" fill="#1C7CD6"/>
<path d="M2107.22 44C1246.03 367.376 40.3574 1056.39 2107.22 1225.43V44Z" fill="white"/>
<path d="M2252.83 177.881C1391.63 501.256 185.963 1026.01 2252.83 1195.06V177.881Z" fill="#1C7CD6"/>
<path d="M2480.39 241.187C1619.2 524.039 413.523 983.037 2480.39 1130.9V241.187Z" fill="white"/>
<path d="M2299.03 384.909C1747.71 590.521 975.86 924.177 2299.03 1031.66V384.909Z" fill="#1C7CD6"/>
<rect x="1879.84" y="486.365" width="5.3613" height="5.3613" rx="0.825473" transform="rotate(-24.4476 1879.84 486.365)" fill="#1C7CD6"/>
<path d="M1838.05 611.701C1838.55 611.473 1839.12 611.878 1839.06 612.43L1838.68 616.262C1838.62 616.814 1837.99 617.099 1837.54 616.775L1834.41 614.527C1833.96 614.203 1834.03 613.513 1834.54 613.285L1838.05 611.701Z" fill="white"/>
<circle cx="3.42196" cy="3.42196" r="3.42196" transform="matrix(-1 0 0 1 1181.58 910.181)" fill="white"/>
<circle cx="3.42196" cy="3.42196" r="3.42196" transform="matrix(-1 0 0 1 858.202 141.95)" fill="white"/>
<circle cx="3.42196" cy="3.42196" r="3.42196" transform="matrix(-1 0 0 1 1205.53 302.782)" fill="white"/>
<circle cx="3.42196" cy="3.42196" r="3.42196" transform="matrix(-1 0 0 1 1058.39 490.99)" fill="white"/>
<circle cx="1519.5" cy="237.823" r="29.9422" fill="white"/>
<circle cx="1252.12" cy="650.507" r="43.63" transform="rotate(18.3001 1252.12 650.507)" fill="white"/>
<path d="M1265.82 609.083C1242.94 601.517 1218.49 613.253 1210.7 636.807C1206.78 648.65 1206.9 657.279 1211.86 668.727C1213.74 663.042 1280.18 617.436 1280.18 617.436C1280.18 617.436 1278.01 613.113 1265.82 609.083Z" fill="#1C7CD6"/>
<circle cx="1413.42" cy="828.909" r="4.27746" fill="#1C7CD6"/>
<circle cx="1615.31" cy="384.054" r="5.98844" fill="#1C7CD6"/>
<rect x="1450.2" y="563.289" width="2.58822" height="2.58822" rx="0.353459" transform="rotate(-24.4476 1450.2 563.289)" fill="white"/>
<rect x="298.711" y="243.336" width="5.19194" height="5.19194" rx="0.709036" transform="rotate(-24.4476 298.711 243.336)" fill="white"/>
<rect x="1126.42" y="640.756" width="4.50432" height="4.50432" rx="0.642662" transform="rotate(35.3063 1126.42 640.756)" fill="#1C7CD6"/>
<path d="M1207.21 791.491C1207.38 791.814 1207.33 792.212 1207.07 792.477L1204.33 795.328C1204.08 795.593 1203.68 795.664 1203.35 795.504L1199.8 793.782C1199.47 793.622 1199.28 793.268 1199.33 792.904L1199.87 788.989C1199.92 788.625 1200.19 788.336 1200.55 788.271L1204.44 787.573C1204.81 787.508 1205.17 787.683 1205.34 788.007L1207.21 791.491Z" fill="white"/>
<path d="M1733.78 151.371C1734.15 151.369 1734.47 151.604 1734.59 151.952L1735.83 155.705C1735.94 156.053 1735.82 156.436 1735.53 156.653L1732.34 158.992C1732.04 159.209 1731.64 159.211 1731.35 158.997L1728.14 156.689C1727.84 156.475 1727.71 156.093 1727.82 155.744L1729.03 151.979C1729.14 151.63 1729.46 151.392 1729.83 151.39L1733.78 151.371Z" fill="white"/>
<path d="M1611.82 774.231C1611.94 774.369 1611.95 774.568 1611.86 774.723L1610.84 776.399C1610.75 776.555 1610.56 776.632 1610.38 776.59L1608.48 776.141C1608.3 776.099 1608.17 775.948 1608.15 775.767L1607.99 773.813C1607.98 773.632 1608.08 773.461 1608.25 773.391L1610.06 772.633C1610.22 772.563 1610.42 772.608 1610.54 772.746L1611.82 774.231Z" fill="white"/>
<path d="M1417.25 339.579C1417.62 339.577 1417.94 339.812 1418.06 340.16L1419.3 343.913C1419.41 344.261 1419.29 344.644 1419 344.861L1415.81 347.2C1415.51 347.417 1415.11 347.419 1414.81 347.205L1411.6 344.897C1411.31 344.683 1411.18 344.301 1411.29 343.952L1412.5 340.187C1412.61 339.838 1412.93 339.6 1413.3 339.598L1417.25 339.579Z" fill="white"/>
<path d="M1693.42 912.723C1693.56 912.946 1693.55 913.236 1693.38 913.441L1691.57 915.653C1691.4 915.858 1691.12 915.932 1690.88 915.836L1688.22 914.801C1687.97 914.705 1687.81 914.46 1687.83 914.196L1687.99 911.344C1688 911.08 1688.19 910.855 1688.44 910.787L1691.21 910.06C1691.46 909.993 1691.73 910.098 1691.88 910.321L1693.42 912.723Z" fill="white"/>
<path d="M913.29 779.922C913.576 779.921 913.83 780.104 913.92 780.375L914.887 783.302C914.976 783.573 914.881 783.872 914.65 784.041L912.166 785.865C911.935 786.034 911.622 786.036 911.39 785.869L908.887 784.07C908.655 783.903 908.557 783.605 908.644 783.332L909.582 780.396C909.669 780.124 909.921 779.938 910.207 779.937L913.29 779.922Z" fill="#1C7CD6"/>
<path d="M952.196 919.609C952.552 919.448 952.949 919.733 952.91 920.122L952.428 924.934C952.389 925.323 951.944 925.524 951.627 925.295L947.701 922.472C947.383 922.244 947.432 921.758 947.788 921.598L952.196 919.609Z" fill="#1C7CD6"/>
</g>
<defs>
<clipPath id="clip0_40_17">
<rect width="1920" height="960" rx="26.6667" fill="white"/>
</clipPath>
</defs>
</svg>
